# xmcd
#
# Track frame offsets: 
#        150
#        16047
#        44032
#        77615
#        103570
#        124142
#        148810
#        172130
#        187675
#        211834
#
# Disc length: 3250 seconds
#
# Revision: 1
# Processed by: cddbd v1.5.2PL0 Copyright (c) Steve Scherf et al.
# Submitted via: ExactAudioCopy v0.99pb3
#
DISCID=820cb00a
DTITLE=Big Jack Johnson and The Oilers - All The Way Back
DYEAR=1998
DGENRE=Blues
TTITLE0=I Wanna Know
TTITLE1=Crack Headed Woman
TTITLE2=Lonely Man
TTITLE3=Miss Magalee Hall
TTITLE4=Can't Stop Me
TTITLE5=I Can't Get No Lovin'
TTITLE6=All Messed Up
TTITLE7=Black Dog
TTITLE8=Shake Your Bootie
TTITLE9=I'm Your Oilman
EXTD=
EXTT0=
EXTT1=
EXTT2=
EXTT3=
EXTT4=
EXTT5=
EXTT6=
EXTT7=
EXTT8=
EXTT9=
PLAYORDER=
